<?xml version="1.0" standalone="no"?><!DOCTYPE svg PUBLIC "-//W3C//DTD SVG 1.1//EN" "http://www.w3.org/Graphics/SVG/1.1/DTD/svg11.dtd"><svg class="icon" width="200px" height="199.80px" viewBox="0 0 1025 1024" version="1.1" xmlns="http://www.w3.org/2000/svg"><path fill="#ffffff" d="M509.994667 384l130.005333 0-105.984 75.989333 40.021333 123.989333-104.021333-77.994667-105.984 77.994667 40.021333-123.989333-105.984-75.989333 130.005333 0 41.984-128zM854.016 86.016q34.005333 0 59.008 24.021333t25.002667 59.989333l0 214.016-84.010667 0 0-214.016-768 0 0 512 553.984 0 0 86.016-86.016 0 0 86.016 86.016 0 0 84.010667-342.016 0 0-84.010667 86.016 0 0-86.016-297.984 0q-36.010667 0-61.013333-25.984t-25.002667-59.989333l0-512q0-36.010667 25.002667-59.989333t61.013333-24.021333l768 0zM982.016 854.016l0-299.989333-214.016 0 0 299.989333 214.016 0zM982.016 470.016q18.005333 0 29.994667 11.989333t11.989333 29.994667l0 384q0 18.005333-11.989333 29.994667t-29.994667 11.989333l-214.016 0q-18.005333 0-29.994667-11.989333t-11.989333-29.994667l0-384q0-18.005333 11.989333-29.994667t29.994667-11.989333l214.016 0z" /></svg>