<?xml version="1.0" standalone="no"?><!DOCTYPE svg PUBLIC "-//W3C//DTD SVG 1.1//EN" "http://www.w3.org/Graphics/SVG/1.1/DTD/svg11.dtd"><svg class="icon" width="200px" height="200.00px" viewBox="0 0 1024 1024" version="1.1" xmlns="http://www.w3.org/2000/svg"><path fill="#ffffff" d="M674.304 177.152h-322.56c-14.848 0-27.136-13.824-27.136-31.232V82.944c0-17.408 12.288-31.232 27.136-31.232h322.56c14.848 0 27.136 13.824 27.136 31.232v62.976c0 17.408-12.288 31.232-27.136 31.232z m68.608 544.256H408.064v41.984h334.848v-41.984z m0-167.424H408.064v41.984h334.848v-41.984z m0-167.424H408.064v41.984h334.848V386.56zM324.608 721.408h-41.984v41.984h41.984v-41.984z m0-167.424h-41.984v41.984h41.984v-41.984z m0-167.424h-41.984v41.984h41.984V386.56z m472.064 585.728H228.864c-62.976 0-113.664-52.224-113.664-117.248V210.944c0-64.512 50.688-117.248 113.664-117.248h28.16v88.064c0 16.384 12.8 29.184 28.16 29.184h454.144c15.872 0 28.16-13.312 28.16-29.184V93.696h28.16c62.976 0 113.664 52.224 113.664 117.248V855.04c1.024 65.024-49.664 117.248-112.64 117.248z"  /></svg>