<?xml version="1.0" standalone="no"?><!DOCTYPE svg PUBLIC "-//W3C//DTD SVG 1.1//EN" "http://www.w3.org/Graphics/SVG/1.1/DTD/svg11.dtd"><svg class="icon" width="200px" height="200.00px" viewBox="0 0 1024 1024" version="1.1" xmlns="http://www.w3.org/2000/svg"><path fill="#ffffff" d="M509.4 595.07c-7.72-33.89-27.76-64.79-56.53-87.16-3.57-2.77-7.29-5.43-11.08-7.92-22.22-17.7-34.93-42.79-34.93-69.06 0-51.26 47.17-93 105.14-93s105.14 41.7 105.14 93c0 26.33-12.77 51.48-35.09 69.18-3.64 2.39-7.23 5-10.69 7.64-28.88 22.38-49 53.34-56.73 87.31zM512 370c20.59 0 39.71 7.08 53.82 19.95 12.46 11.35 19.32 25.92 19.32 41 0 21.56-13.12 36-22 43.34-3.87 2.59-7.68 5.33-11.36 8.18A192.84 192.84 0 0 0 512 524a192.82 192.82 0 0 0-39.5-41.4c-3.8-3-7.75-5.8-11.78-8.49-8.87-7.34-21.88-21.76-21.88-43.22 0-15.1 6.86-29.66 19.32-41C472.29 377.07 491.41 370 512 370m0-64c-75.62 0-137.14 56.06-137.14 125 0 38.05 18.77 72.18 48.3 95.12q5.22 3.35 10.07 7.12c22.83 17.74 39.15 42.24 45.2 70.06a113.29 113.29 0 0 1 2.6 23.84h62a113.28 113.28 0 0 1 2.6-23.84c6.07-27.88 22.45-52.42 45.36-70.17q4.68-3.63 9.71-6.87c29.63-22.94 48.47-57.12 48.47-95.24 0-68.9-61.52-125-137.14-125zM511.92 928c-0.79 0-17.44-0.26-44.29-6.14-25.22-5.52-64.89-17.3-110.67-42C270.3 833 165.53 710.92 131.39 508.49c-23-136.45-31.09-233.64-33.91-282q6.78 0.18 14.69 0.19c45.47 0 119.06-5.46 211.38-31.46 93-26.21 157.21-67 188.44-90.19 31.24 23.16 95.4 64 188.44 90.19 92.33 26 165.91 31.46 211.38 31.46q7.9 0 14.69-0.19c-2.82 48.36-10.9 145.55-33.91 282C858.47 710.92 753.7 833 667 879.84c-45.78 24.72-85.45 36.49-110.67 42-26.71 5.88-43.33 6.16-44.27 6.16zM432 800h160v-93.09h37.93v-81.77c0.62-10 5.4-19.33 13.65-26.65 3.55-2.39 7-4.88 10.4-7.43 5.35-4.06 10.51-8.35 15.35-12.76a207.32 207.32 0 0 0 45.93-60.14A192.41 192.41 0 0 0 736 430.94c0-55.84-23.68-108.18-66.68-147.36C627.15 245.16 571.28 224 512 224s-115.15 21.16-157.32 59.59c-43 39.18-66.68 91.51-66.68 147.35a192.42 192.42 0 0 0 20.75 87.22 207.29 207.29 0 0 0 45.93 60.13c4.79 4.36 9.9 8.62 15.2 12.64 3.45 2.62 7 5.19 10.68 7.63 8.79 7.86 13.61 18 13.61 28.79v32h0.07v47.54H432zM512 144.14c5.27 3.54 11 7.25 17.2 11.07 49.37 30.51 104.06 54.33 162.57 70.81 83.62 23.55 152.69 30.87 200.48 32.35-4.17 53.1-12.91 136.35-31.2 244.79-8 47.65-20.52 92.8-37.11 134.2a523.57 523.57 0 0 1-53.79 101.47c-46.44 67.67-94.07 99.75-118.32 112.84-41.5 22.41-77.32 33.26-100.06 38.41-22.93 5.2-37.6 5.83-39.77 5.9s-16.84-0.7-39.77-5.9c-22.74-5.16-58.55-16-100.06-38.41-24.25-13.1-71.88-45.17-118.32-112.84a523.57 523.57 0 0 1-53.79-101.47C183.47 596 171 550.81 162.95 503.17c-18.29-108.45-27-191.69-31.2-244.79 47.79-1.48 116.86-8.8 200.48-32.35 58.5-16.48 113.2-40.3 162.56-70.81a567.13 567.13 0 0 0 17.2-11.07M360.27 623.48a6.41 6.41 0 0 1 1.91 3.89v64h0.07v47.54H400V832h224v-93.09h37.93V626.69a7.44 7.44 0 0 1 1.89-3.27c3.24-2.23 6.42-4.53 9.5-6.87 6.11-4.64 12-9.55 17.55-14.59a239.16 239.16 0 0 0 53-69.41 225.73 225.73 0 0 0 3.91-195.07 237.7 237.7 0 0 0-56.87-77.54C642.79 216.13 579.27 192 512 192s-130.79 24.13-178.87 67.93a237.7 237.7 0 0 0-56.87 77.54 225.73 225.73 0 0 0 3.91 195.07 239.18 239.18 0 0 0 53 69.41c5.48 5 11.33 9.86 17.39 14.46 3.17 2.41 6.44 4.77 9.76 7.06M512 64s-69.89 64.58-197.12 100.42c-88.89 25-159.37 30.27-202.7 30.27C81.12 194.68 64 192 64 192s1.19 116.36 35.84 321.81c37 219.43 152.32 345.81 241.92 394.19 95.56 51.6 167.95 52 170.19 52h0.11c2.23 0 74.62-0.4 170.19-52 89.6-48.38 204.92-174.75 241.92-394.19C958.81 308.36 960 192 960 192s-17.12 2.68-48.18 2.68c-43.34 0-113.8-5.23-202.7-30.27C581.89 128.58 512 64 512 64z m-85.82 563.37c0-21.47-10.12-40.83-26.24-54.33q-5.47-3.6-10.69-7.56-6.73-5.11-13-10.82a175.72 175.72 0 0 1-38.9-50.86A161.45 161.45 0 0 1 320 430.94c0-46.73 20-90.66 56.24-123.7S460.71 256 512 256s99.5 18.2 135.76 51.24 56.24 77 56.24 123.7a161.45 161.45 0 0 1-17.34 72.84 175.71 175.71 0 0 1-38.9 50.86q-6.33 5.77-13.14 10.92-5.08 3.86-10.41 7.36c-16.12 13.44-26.27 32.73-26.36 54.14h0.07v47.84H426.25v-47.53zM464 768v-46.55h96V768z" /></svg>